#!OML:ASF H:\Dans Jumps\Project 1\Capture day 1\Session 1\subject.ASF
:FULLY-SPECIFIED
:DEGREES
519
root 0.817796 17.8101 5.75267 8.65233 -0.274651 -2.33561
lowerback -1.94372 1.30374 -0.536105
upperback 2.03049 1.73269 0.883016
thorax 3.13168 0.840539 1.28746
lowerneck -11.3499 -0.646986 -1.42504
upperneck 33.3894 -1.25639 2.11429
head 13.0686 -0.444667 0.899623
rclavicle 7.43579e-015 4.5969e-015
rhumerus -27.8126 -22.3441 -76.6429
rradius 22.9508
rwrist 40.8404
rhand -21.6391 -25.8229
rfingers 7.12502
rthumb 4.75727 -55.7495
lclavicle 7.43579e-015 4.5969e-015
lhumerus -36.6925 -5.39271 88.2902
lradius 20.3351
lwrist 10.1162
lhand -23.7741 -3.37574
lfingers 7.12502
lthumb 2.69554 26.587
rfemur -15.9911 -2.39468 19.7625
rtibia 17.1953
rfoot -8.7384 1.72562
rtoes 17.7812
lfemur -15.9847 6.82822 -18.6954
ltibia 17.2685
lfoot -6.44297 6.00808
ltoes 3.83939
520
root 0.814678 17.812 5.77998 8.77698 -0.334713 -2.33987
lowerback -2.03343 1.31194 -0.501519
upperback 2.03448 1.74276 0.874698
thorax 3.18743 0.846045 1.26253
lowerneck -11.3417 -0.628199 -1.44082
upperneck 33.3481 -1.22102 2.10455
head 13.0483 -0.432606 0.903204
rclavicle 1.12686e-014 1.1455e-014
rhumerus -27.939 -21.8443 -76.8455
rradius 23.2562
rwrist 40.6053
rhand -21.4092 -25.7432
rfingers 7.12502
rthumb 4.97928 -55.6647
lclavicle 1.12686e-014 1.1455e-014
lhumerus -36.5842 -5.39174 88.1382
lradius 20.456
lwrist 9.90807
lhand -23.9103 -3.44711
lfingers 7.12502
lthumb 2.56394 26.5172
rfemur -16.0353 -2.41394 19.7932
rtibia 17.1832
rfoot -8.79654 1.76486
rtoes 17.7412
lfemur -15.9819 6.86005 -18.686
ltibia 17.2174
lfoot -6.50284 6.05604
ltoes 3.83752
521
root 0.811473 17.8133 5.80686 8.86564 -0.385346 -2.34027
lowerback -2.08865 1.31471 -0.467265
upperback 2.04054 1.74544 0.868777
thorax 3.22598 0.84796 1.23902
lowerneck -11.3278 -0.6072 -1.45842
upperneck 33.3129 -1.18151 2.09283
head 13.0292 -0.419228 0.90697
rclavicle -9.0447e-015 1.54058e-015
rhumerus -28.0769 -21.3777 -77.0419
rradius 23.5902
rwrist 40.2374
rhand -21.2095 -25.6631
rfingers 7.12502
rthumb 5.17205 -55.58
lclavicle -9.0447e-015 1.54058e-015
lhumerus -36.4512 -5.29808 87.9488
lradius 20.5511
lwrist 9.77337
lhand -24.0646 -3.53065
lfingers 7.12502
lthumb 2.41495 26.4354
rfemur -16.0452 -2.42035 19.8161
rtibia 17.1834
rfoot -8.86074 1.78259
rtoes 17.667
lfemur -15.9449 6.88788 -18.6766
ltibia 17.1721
lfoot -6.56474 6.09836
ltoes 3.82511
522
root 0.808095 17.814 5.83349 8.91945 -0.424127 -2.32921
lowerback -2.11447 1.31181 -0.440402
upperback 2.0474 1.74079 0.861104
thorax 3.24876 0.846191 1.2167
lowerneck -11.3047 -0.585438 -1.4662
upperneck 33.2855 -1.14094 2.07278
head 13.0115 -0.405251 0.905981
rclavicle 1.60953e-014 1.51573e-015
rhumerus -28.2223 -20.9633 -77.2282
rradius 23.9335
rwrist 39.7524
rhand -21.0291 -25.5936
rfingers 7.12502
rthumb 5.34626 -55.5062
lclavicle 1.60953e-014 1.51573e-015
lhumerus -36.3069 -5.12164 87.7251
lradius 20.6292
lwrist 9.72283
lhand -24.2424 -3.66216
lfingers 7.12502
lthumb 2.24329 26.3058
rfemur -16.0209 -2.41251 19.822
rtibia 17.1963
rfoot -8.93433 1.77765
rtoes 17.5795
lfemur -15.8738 6.9133 -18.6759
ltibia 17.1315
lfoot -6.6305 6.13099
ltoes 3.79479
523
root 0.804471 17.8144 5.85955 8.94764 -0.448293 -2.31122
lowerback -2.11632 1.30011 -0.418327
upperback 2.05637 1.72453 0.854442
thorax 3.26028 0.838582 1.19693
lowerneck -11.2874 -0.560323 -1.47828
upperneck 33.2657 -1.09504 2.05426
head 12.9981 -0.389256 0.907158
rclavicle 1.65985e-014 -1.39149e-015
rhumerus -28.3575 -20.5979 -77.4066
rradius 24.2722
rwrist 39.1716
rhand -20.8687 -25.5374
rfingers 7.12502
rthumb 5.50107 -55.446
lclavicle 1.65985e-014 -1.39149e-015
lhumerus -36.1447 -4.86466 87.4713
lradius 20.6964
lwrist 9.76392
lhand -24.4109 -3.79431
lfingers 7.12502
lthumb 2.08049 26.1753
rfemur -15.9726 -2.39168 19.8172
rtibia 17.2214
rfoot -9.01705 1.74818
rtoes 17.4633
lfemur -15.7809 6.93386 -18.6797
ltibia 17.0949
lfoot -6.69609 6.15453
ltoes 3.7485
524
root 0.800555 17.8144 5.88502 8.95836 -0.455681 -2.29702
lowerback -2.10152 1.27909 -0.390542
upperback 2.0633 1.69555 0.850212
thorax 3.26066 0.824823 1.17537
lowerneck -11.2756 -0.529433 -1.47839
upperneck 33.2591 -1.04018 2.02419
head 12.9912 -0.369295 0.903119
rclavicle -1.98785e-014 -1.98785e-015
rhumerus -28.4856 -20.271 -77.5798
rradius 24.6014
rwrist 38.517
rhand -20.7275 -25.4999
rfingers 7.12502
rthumb 5.63746 -55.4049
lclavicle -1.98785e-014 -1.98785e-015
lhumerus -35.9784 -4.54659 87.1945
lradius 20.7586
lwrist 9.86065
lhand -24.5912 -3.96141
lfingers 7.12502
lthumb 1.90635 26.0098
rfemur -15.9083 -2.35692 19.8141
rtibia 17.255
rfoot -9.10594 1.69353
rtoes 17.3607
lfemur -15.678 6.95613 -18.6774
ltibia 17.0663
lfoot -6.76219 6.16345
ltoes 3.68311
525
root 0.796126 17.8142 5.91007 8.9568 -0.447157 -2.28111
lowerback -2.08021 1.24698 -0.367529
upperback 2.07256 1.65186 0.848869
thorax 3.25984 0.803587 1.15862
lowerneck -11.27 -0.494464 -1.48027
upperneck 33.2559 -0.978904 1.99369
head 12.987 -0.346817 0.900144
rclavicle 2.00959e-014 -5.04416e-015
rhumerus -28.5922 -19.975 -77.7511
rradius 24.9144
rwrist 37.8173
rhand -20.6031 -25.4767
rfingers 7.12502
rthumb 5.75759 -55.3785
lclavicle 2.00959e-014 -5.04416e-015
lhumerus -35.8028 -4.18716 86.9055
lradius 20.8241
lwrist 10.0003
lhand -24.7651 -4.10058
lfingers 7.12502
lthumb 1.73842 25.8721
rfemur -15.8324 -2.30549 19.8078
rtibia 17.2962
rfoot -9.20448 1.61003
rtoes 17.2706
lfemur -15.5705 6.97779 -18.674
ltibia 17.0448
lfoot -6.83026 6.15912
ltoes 3.61433
526
root 0.791231 17.8136 5.93506 8.95192 -0.42651 -2.27035
lowerback -2.06943 1.2069 -0.343093
upperback 2.08337 1.59735 0.851873
thorax 3.26668 0.776894 1.14534
lowerneck -11.2707 -0.457297 -1.47981
upperneck 33.257 -0.913507 1.9583
head 12.9858 -0.322877 0.895471
rclavicle -2.18197e-014 5.39203e-015
rhumerus -28.6761 -19.7021 -77.92
rradius 25.206
rwrist 37.096
rhand -20.49 -25.4788
rfingers 7.12502
rthumb 5.86677 -55.3776
lclavicle -2.18197e-014 5.39203e-015
lhumerus -35.6143 -3.79911 86.6109
lradius 20.878
lwrist 10.1419
lhand -24.9453 -4.24155
lfingers 7.12502
lthumb 1.5644 25.7325
rfemur -15.7533 -2.24251 19.8074
rtibia 17.3428
rfoot -9.31155 1.50385
rtoes 17.1834
lfemur -15.4661 6.99891 -18.6627
ltibia 17.0299
lfoot -6.89809 6.14515
ltoes 3.53487
527
root 0.786112 17.813 5.96071 8.94537 -0.396591 -2.24642
lowerback -2.07575 1.15824 -0.334507
upperback 2.093 1.53199 0.85423
thorax 3.28175 0.744389 1.14015
lowerneck -11.2579 -0.418345 -1.48288
upperneck 33.2535 -0.844904 1.92316
head 12.9798 -0.298045 0.891893
rclavicle -5.60635e-015 -5.7896e-015
rhumerus -28.7456 -19.442 -78.0845
rradius 25.475
rwrist 36.3779
rhand -20.3834 -25.5051
rfingers 7.12502
rthumb 5.96962 -55.401
lclavicle -5.60635e-015 -5.7896e-015
lhumerus -35.4287 -3.40061 86.3204
lradius 20.9335
lwrist 10.2741
lhand -25.1346 -4.38043
lfingers 7.12502
lthumb 1.38156 25.5948
rfemur -15.6713 -2.19107 19.7936
rtibia 17.3952
rfoot -9.42968 1.39833
rtoes 17.1063
lfemur -15.3603 7.01724 -18.6649
ltibia 17.0167
lfoot -6.96807 6.12354
ltoes 3.44161
528
root 0.780834 17.8121 5.98708 8.94004 -0.356539 -2.21618
lowerback -2.10298 1.10452 -0.332756
upperback 2.10037 1.46013 0.856472
thorax 3.30625 0.70844 1.13877
lowerneck -11.233 -0.381382 -1.48477
upperneck 33.2468 -0.778391 1.88415
head 12.9698 -0.274541 0.886254
rclavicle 6.4605e-015 -8.64713e-015
rhumerus -28.8049 -19.1972 -78.2416
rradius 25.7206
rwrist 35.6824
rhand -20.2919 -25.5484
rfingers 7.12502
rthumb 6.05805 -55.4418
lclavicle 6.4605e-015 -8.64713e-015
lhumerus -35.2439 -3.00834 86.0409
lradius 20.9849
lwrist 10.3946
lhand -25.3442 -4.53137
lfingers 7.12502
lthumb 1.17913 25.4451
rfemur -15.5869 -2.15965 19.7758
rtibia 17.4495
rfoot -9.55586 1.29848
rtoes 17.0192
lfemur -15.2549 7.02603 -18.6722
ltibia 17.0045
lfoot -7.04019 6.10068
ltoes 3.34879
529
root 0.775543 17.8111 6.01426 8.93631 -0.308973 -2.18299
lowerback -2.15203 1.04808 -0.33327
upperback 2.10541 1.38468 0.859503
thorax 3.34069 0.670597 1.13968
lowerneck -11.1933 -0.346915 -1.48878
upperneck 33.2349 -0.714758 1.844
head 12.9546 -0.252755 0.880057
rclavicle -4.70871e-015 6.70898e-016
rhumerus -28.8563 -18.9663 -78.3886
rradius 25.9417
rwrist 35.0328
rhand -20.2134 -25.6102
rfingers 7.12502
rthumb 6.13383 -55.5014
lclavicle -4.70871e-015 6.70898e-016
lhumerus -35.0505 -2.62612 85.7753
lradius 21.0195
lwrist 10.5054
lhand -25.5582 -4.68317
lfingers 7.12502
lthumb 0.972479 25.2944
rfemur -15.4992 -2.15698 19.7582
rtibia 17.5013
rfoot -9.68735 1.21468
rtoes 16.9002
lfemur -15.1495 7.02549 -18.6817
ltibia 16.9934
lfoot -7.11334 6.07972
ltoes 3.25106
530
root 0.770198 17.8101 6.04191 8.93523 -0.253905 -2.15596
lowerback -2.2181 0.991712 -0.325788
upperback 2.10426 1.309 0.863979
thorax 3.37851 0.632816 1.13774
lowerneck -11.1381 -0.316871 -1.49125
upperneck 33.2218 -0.658241 1.80408
head 12.9357 -0.233896 0.87263
rclavicle -1.12096e-014 5.46658e-016
rhumerus -28.9071 -18.7444 -78.5265
rradius 26.1414
rwrist 34.4309
rhand -20.1725 -25.6732
rfingers 7.12502
rthumb 6.1733 -55.5633
lclavicle -1.12096e-014 5.46658e-016
lhumerus -34.8533 -2.253 85.5203
lradius 21.043
lwrist 10.6066
lhand -25.7784 -4.86701
lfingers 7.12502
lthumb 0.759798 25.1114
rfemur -15.4073 -2.17567 19.7505
rtibia 17.5435
rfoot -9.81488 1.14438
rtoes 16.7802
lfemur -15.0495 7.0131 -18.6827
ltibia 16.9895
lfoot -7.18786 6.06556
ltoes 3.15172
